<svg id="Layer_1" data-name="Layer 1" xmlns="http://www.w3.org/2000/svg" viewBox="0 0 510 1000"><defs><style>.cls-1{fill:#fff;}.cls-2{fill:#03e2f9;}.cls-3{fill:#12e0b8;}.cls-3,.cls-4{opacity:0.6;}.cls-4{fill:#108699;}.cls-5{font-size:36px;fill:#515151;font-family:MyriadPro-Regular, Myriad Pro;letter-spacing:-0.06em;}.cls-6{letter-spacing:0em;}.cls-7{letter-spacing:0em;}.cls-8{letter-spacing:0em;}</style></defs><title>Artboard 1</title><rect class="cls-1" y="1" width="510" height="999"/><path class="cls-2" d="M217.51,264.26A80.67,80.67,0,0,1,255,196.09a80.72,80.72,0,0,0-124,68.17V345h80.74A80.39,80.39,0,0,0,255,332.42,80.65,80.65,0,0,1,217.51,264.26Z"/><path class="cls-3" d="M298.26,183.51A80.39,80.39,0,0,0,255,196.09a80.71,80.71,0,0,1,0,136.33,80.74,80.74,0,1,0,43.26-148.91Z"/><ellipse class="cls-2" cx="255" cy="264.26" rx="37.49" ry="68.17"/><ellipse class="cls-4" cx="255" cy="264.26" rx="37.49" ry="68.17"/><text class="cls-5" transform="translate(181.74 799)">T<tspan class="cls-6" x="15.59" y="0">ao | Ch</tspan><tspan class="cls-7" x="117.43" y="0">a</tspan><tspan class="cls-8" x="134.64" y="0">t</tspan></text></svg>