<svg id="Layer_1" data-name="Layer 1" xmlns="http://www.w3.org/2000/svg" viewBox="0 0 512 512"><defs><style>.cls-1{fill:#f9f9f9;}.cls-2{fill:#03e2f9;}.cls-3{fill:#12e0b8;}.cls-3,.cls-4{opacity:0.6;}.cls-4{fill:#108699;}</style></defs><title>Artboard 2</title><rect class="cls-1" width="514" height="514"/><path class="cls-2" d="M199.41,256A123.92,123.92,0,0,1,257,151.28,124,124,0,0,0,66.5,256V380.05H190.55A123.4,123.4,0,0,0,257,360.72,123.92,123.92,0,0,1,199.41,256Z"/><path class="cls-3" d="M323.45,132A123.4,123.4,0,0,0,257,151.28a124,124,0,0,1,0,209.44A124,124,0,1,0,323.45,132Z"/><ellipse class="cls-2" cx="257" cy="256" rx="57.59" ry="104.72"/><ellipse class="cls-4" cx="257" cy="256" rx="57.59" ry="104.72"/></svg>