<svg xmlns="http://www.w3.org/2000/svg" viewBox="0 0 64 64"><title>Asset 16</title><g id="Layer_2" data-name="Layer 2"><g id="Layer_1-2" data-name="Layer 1"><path d="M45,32.64H18.68C8.57,32.64,0,39.58,0,48.32V64H64V48.32C64,39.58,55.43,32.64,45,32.64Zm15,28H4V48.32C4,41.64,10.72,36,18.68,36H45c8.27,0,15,5.66,15,12.34Z"/><path d="M31.85,0c-10.41,0-19,7.2-19,15.94,0,9,8.58,16.19,19,16.19,10.71,0,19.29-7.2,19.29-16.19C51.14,7.2,42.56,0,31.85,0Zm0,28.79c-8.27,0-15-5.66-15-12.85,0-6.94,6.74-12.6,15-12.6,8.57,0,15.31,5.66,15.31,12.6C47.16,23.13,40.42,28.79,31.85,28.79Z"/></g></g></svg>