<svg xmlns="http://www.w3.org/2000/svg" viewBox="0 0 64 64"><defs><style>.cls-1{fill:#050505;}.cls-2{fill:#020202;}</style></defs><title>Asset 14</title><g id="Layer_2" data-name="Layer 2"><g id="Layer_1-2" data-name="Layer 1"><path d="M58.8,0H10.36A5.09,5.09,0,0,0,5.17,5V9.59C2.07,9.93,0,11.36,0,13.19s2.14,3.28,5.17,3.62v5.31C2.07,22.46,0,23.88,0,25.72S2.14,29,5.17,29.33v5.31C2.07,35,0,36.41,0,38.24s2.14,3.28,5.17,3.61v5.32C2.07,47.51,0,48.94,0,50.77s2.14,3.28,5.17,3.61V59a5.09,5.09,0,0,0,5.19,5H58.8A5.09,5.09,0,0,0,64,59V5A5.09,5.09,0,0,0,58.8,0ZM5.17,52.07c-1.81-.25-2.78-1-2.78-1.3s.9-1,2.78-1.28Zm0-12.53c-1.75-.26-2.78-.95-2.78-1.3s.9-1,2.78-1.27ZM5.17,27c-1.75-.26-2.78-1-2.78-1.29s.9-1,2.78-1.28Zm0-12.52c-1.81-.26-2.78-1-2.78-1.3s.9-1,2.78-1.27Zm11,47.23H10.36A2.75,2.75,0,0,1,7.56,59V54.4c3.19-.26,5.5-1.73,5.5-3.63a1.2,1.2,0,0,0-2.39,0c0,.35-1.09,1.14-3.11,1.35V41.88c3.19-.27,5.5-1.73,5.5-3.63a1.2,1.2,0,0,0-2.39,0c0,.36-1.16,1.13-3.11,1.34V29.35c3.19-.26,5.5-1.73,5.5-3.63a1.2,1.2,0,0,0-2.39,0c0,.37-1.16,1.13-3.11,1.34V16.82c3.19-.26,5.5-1.73,5.5-3.63a1.2,1.2,0,0,0-2.39,0c0,.35-1.09,1.14-3.11,1.35V5a2.74,2.74,0,0,1,2.8-2.68h5.81ZM61.61,59a2.76,2.76,0,0,1-2.81,2.69H18.56V2.29H58.8A2.75,2.75,0,0,1,61.61,5Z"/><rect x="27.21" y="52.17" width="16.5" height="2.29"/><path d="M41.16,25a10.66,10.66,0,0,0-1.08,0A10.66,10.66,0,0,0,39,25c-6.17,0-9.86,3.12-9.86,8.35a1.17,1.17,0,0,0,1.19,1.15H49.84A1.17,1.17,0,0,0,51,33.38C51,28.15,47.34,25,41.16,25Zm-9.55,7.21c.63-4.25,4.82-4.92,7.39-4.92.56,0,.92,0,1,0a1.22,1.22,0,0,0,.27,0s.39,0,.94,0c2.58,0,6.77.67,7.4,4.92Z"/><rect class="cls-1" x="27.21" y="43.54" width="25.76" height="2.28"/><path class="cls-2" d="M40.08,11.91a6.2,6.2,0,0,0-6.32,6,6.33,6.33,0,0,0,12.65,0A6.2,6.2,0,0,0,40.08,11.91Zm0,9.81A3.86,3.86,0,0,1,36.15,18,3.94,3.94,0,0,1,44,18,3.86,3.86,0,0,1,40.08,21.72Z"/></g></g></svg>