<svg xmlns="http://www.w3.org/2000/svg" viewBox="0 0 64 64"><title>Asset 13</title><g id="Layer_2" data-name="Layer 2"><g id="Layer_1-2" data-name="Layer 1"><path d="M54.61,9.39A31.92,31.92,0,1,0,64,32,32.1,32.1,0,0,0,54.61,9.39ZM32,59.73A27.73,27.73,0,1,1,59.73,32,27.76,27.76,0,0,1,32,59.73Z"/><path d="M47,17.07a1.84,1.84,0,0,0-2.34-.29L27,27,16.78,44.73A1.93,1.93,0,0,0,17,47a1.72,1.72,0,0,0,1.28.49,1.64,1.64,0,0,0,1-.28L37,37,47.22,19.34A1.91,1.91,0,0,0,47,17.07ZM32,35.56A3.56,3.56,0,1,1,35.56,32,3.53,3.53,0,0,1,32,35.56Z"/></g></g></svg>