<svg xmlns="http://www.w3.org/2000/svg" viewBox="0 0 64 64"><defs><style>.cls-1{fill:#03e2f9;}</style></defs><title>chats_active</title><g id="Layer_2" data-name="Layer 2"><g id="Layer_1-2" data-name="Layer 1"><path class="cls-1" d="M57.78,0H6.22C2.79,0,0,3.28,0,7.32V41c0,4,2.79,7.32,6.22,7.32H30.67V61.9a2,2,0,0,0,1,1.88,1.18,1.18,0,0,0,.8.21,1.38,1.38,0,0,0,1.07-.41L50,48.31h7.82C61.21,48.31,64,45,64,41V7.32C64,3.28,61.21,0,57.78,0Zm2.66,7.32V41A2.88,2.88,0,0,1,58,44.13H49.33a1.4,1.4,0,0,0-1.06.52l-14.05,13V46.22a2,2,0,0,0-1.78-2.09H6.22A2.79,2.79,0,0,1,3.56,41.2a.74.74,0,0,1,0-.21V7.32A2.88,2.88,0,0,1,6,4.18H57.78a2.79,2.79,0,0,1,2.66,2.93A.74.74,0,0,1,60.44,7.32Z"/><path class="cls-1" d="M60.44,7.11a.74.74,0,0,1,0,.21V41A2.88,2.88,0,0,1,58,44.13H49.33a1.4,1.4,0,0,0-1.06.52l-14.05,13V46.22a2,2,0,0,0-1.78-2.09H6.22A2.79,2.79,0,0,1,3.56,41.2a.74.74,0,0,1,0-.21V7.32A2.88,2.88,0,0,1,6,4.18H57.78A2.79,2.79,0,0,1,60.44,7.11Z"/></g></g></svg>