<svg xmlns="http://www.w3.org/2000/svg" viewBox="0 0 64 64"><defs><style>.cls-1{fill:#03e2f9;}</style></defs><title>dicover_active</title><g id="Layer_2" data-name="Layer 2"><g id="Layer_1-2" data-name="Layer 1"><path class="cls-1" d="M54.61,9.39A31.92,31.92,0,1,0,64,32,32.1,32.1,0,0,0,54.61,9.39ZM32,59.73A27.73,27.73,0,1,1,59.73,32,27.76,27.76,0,0,1,32,59.73Z"/><path class="cls-1" d="M32,4.27A27.73,27.73,0,1,0,59.73,32,27.76,27.76,0,0,0,32,4.27ZM47.22,19.34,37,37,19.27,47.22a1.64,1.64,0,0,1-1,.28A1.72,1.72,0,0,1,17,47a1.93,1.93,0,0,1-.22-2.28L27,27,44.66,16.78a1.84,1.84,0,0,1,2.34.29A1.91,1.91,0,0,1,47.22,19.34Z"/><path class="cls-1" d="M35.56,32A3.56,3.56,0,1,1,32,28.45,3.53,3.53,0,0,1,35.56,32Z"/></g></g></svg>